<svg width="25" height="25" viewBox="0 0 25 25" fill="none" xmlns="http://www.w3.org/2000/svg">
<path d="M2.5 9.5V7.5C2.5 4.5 4.5 2.5 7.5 2.5H17.5C20.5 2.5 22.5 4.5 22.5 7.5V9.5" stroke="#6C7CA7" stroke-width="1.5" stroke-miterlimit="10" stroke-linecap="round" stroke-linejoin="round"/>
<path d="M2.5 15.5V17.5C2.5 20.5 4.5 22.5 7.5 22.5H17.5C20.5 22.5 22.5 20.5 22.5 17.5V15.5" stroke="#6C7CA7" stroke-width="1.5" stroke-miterlimit="10" stroke-linecap="round" stroke-linejoin="round"/>
<path d="M7.19995 9.75977L12.5 12.8298L17.7599 9.77979" stroke="#6C7CA7" stroke-width="1.5" stroke-linecap="round" stroke-linejoin="round"/>
<path d="M12.5 18.2693V12.8193" stroke="#6C7CA7" stroke-width="1.5" stroke-linecap="round" stroke-linejoin="round"/>
<path d="M11.26 6.78957L8.05998 8.5696C7.33998 8.9696 6.73999 9.97959 6.73999 10.8096V14.1996C6.73999 15.0296 7.32998 16.0396 8.05998 16.4396L11.26 18.2196C11.94 18.5996 13.06 18.5996 13.75 18.2196L16.95 16.4396C17.67 16.0396 18.27 15.0296 18.27 14.1996V10.8096C18.27 9.97959 17.68 8.9696 16.95 8.5696L13.75 6.78957C13.06 6.39957 11.94 6.39957 11.26 6.78957Z" stroke="#6C7CA7" stroke-width="1.5" stroke-linecap="round" stroke-linejoin="round"/>
</svg>
