<svg width="20" height="20" viewBox="0 0 20 20" fill="none" xmlns="http://www.w3.org/2000/svg">
<path d="M8.96617 6.97998C8.8395 6.97998 8.71281 6.93333 8.61281 6.83333L6.48615 4.70667L4.35948 6.83333C4.16614 7.02667 3.84615 7.02667 3.65281 6.83333C3.45948 6.64 3.45948 6.32 3.65281 6.12667L6.13283 3.64665C6.22617 3.55331 6.35281 3.5 6.48615 3.5C6.61948 3.5 6.74617 3.55331 6.8395 3.64665L9.31948 6.12667C9.51281 6.32 9.51281 6.64 9.31948 6.83333C9.21948 6.93333 9.09283 6.97998 8.96617 6.97998Z" fill="#70EDEF"/>
<path d="M6.4873 16.5C6.21397 16.5 5.9873 16.2733 5.9873 16V4C5.9873 3.72667 6.21397 3.5 6.4873 3.5C6.76064 3.5 6.9873 3.72667 6.9873 4V16C6.9873 16.2733 6.76064 16.5 6.4873 16.5Z" fill="#70EDEF"/>
<path d="M13.5203 16.4993C13.387 16.4993 13.2603 16.446 13.167 16.3527L10.687 13.8727C10.4937 13.6793 10.4937 13.3593 10.687 13.166C10.8803 12.9727 11.2003 12.9727 11.3937 13.166L13.5203 15.2927L15.647 13.166C15.8403 12.9727 16.1603 12.9727 16.3537 13.166C16.547 13.3593 16.547 13.6793 16.3537 13.8727L13.8736 16.3527C13.7803 16.446 13.647 16.4993 13.5203 16.4993Z" fill="#70EDEF"/>
<path d="M13.5127 16.5C13.2394 16.5 13.0127 16.2733 13.0127 16V4C13.0127 3.72667 13.2394 3.5 13.5127 3.5C13.786 3.5 14.0127 3.72667 14.0127 4V16C14.0127 16.2733 13.7927 16.5 13.5127 16.5Z" fill="#70EDEF"/>
</svg>
