<svg width="21" height="20" viewBox="0 0 21 20" fill="none" xmlns="http://www.w3.org/2000/svg">
<g id="Icons / Test">
<path id="Vector" d="M13.8346 13.3334L15.5013 13.3334C15.9433 13.3334 16.3673 13.1578 16.6798 12.8452C16.9924 12.5327 17.168 12.1087 17.168 11.6667L17.168 5.00004C17.168 4.55801 16.9924 4.13409 16.6798 3.82153C16.3673 3.50897 15.9433 3.33337 15.5013 3.33337L8.83464 3.33337C8.39261 3.33337 7.96869 3.50897 7.65612 3.82153C7.34356 4.13409 7.16797 4.55801 7.16797 5.00004L7.16797 6.66671M12.168 6.66671C12.61 6.66671 13.0339 6.8423 13.3465 7.15486C13.659 7.46742 13.8346 7.89135 13.8346 8.33337L13.8346 15C13.8346 15.4421 13.659 15.866 13.3465 16.1786C13.0339 16.4911 12.61 16.6667 12.168 16.6667L5.5013 16.6667C5.05927 16.6667 4.63535 16.4911 4.32279 16.1786C4.01023 15.866 3.83464 15.4421 3.83464 15L3.83464 8.33337C3.83464 7.89135 4.01023 7.46742 4.32279 7.15486C4.63535 6.8423 5.05927 6.66671 5.5013 6.66671L12.168 6.66671Z" stroke="#101212" stroke-width="2" stroke-linecap="round" stroke-linejoin="round"/>
</g>
</svg>
