<svg width="35" height="36" viewBox="0 0 35 36" fill="none" xmlns="http://www.w3.org/2000/svg">
<rect y="0.5" width="35" height="35" rx="10" fill="#70EDEF" fill-opacity="0.1"/>
<path d="M8 14.187C8.104 12.087 8.415 10.777 9.347 9.847C10.277 8.915 11.587 8.604 13.687 8.5M27 14.187C26.896 12.087 26.585 10.777 25.653 9.847C24.723 8.915 23.413 8.604 21.313 8.5M21.313 27.5C23.413 27.396 24.723 27.085 25.653 26.153C26.585 25.223 26.896 23.913 27 21.813M13.687 27.5C11.587 27.396 10.277 27.085 9.347 26.153C8.415 25.223 8.104 23.913 8 21.813M23 23L22.798 22.151C22.7159 21.8065 22.5437 21.49 22.2991 21.2338C22.0545 20.9776 21.7463 20.791 21.406 20.693L19 19.999V18.532C19.896 17.927 20.5 16.796 20.5 15.5C20.5 13.567 19.156 12 17.5 12C15.843 12 14.5 13.567 14.5 15.5C14.5 16.796 15.103 17.927 16 18.532V19.999L13.609 20.699C13.2789 20.7957 12.9792 20.9758 12.7391 21.2221C12.4989 21.4684 12.3263 21.7725 12.238 22.105L12 23" stroke="#70EDEF" stroke-width="1.5" stroke-linecap="round" stroke-linejoin="round"/>
</svg>
