<svg width="20" height="20" viewBox="0 0 20 20" fill="none" xmlns="http://www.w3.org/2000/svg">
<path d="M16.6663 10.0002H8.74967M14.9997 12.5002L17.4997 10.0002L14.9997 7.50016M10.833 5.8335V5.00016C10.833 4.55814 10.6574 4.13421 10.3449 3.82165C10.0323 3.50909 9.60837 3.3335 9.16634 3.3335H4.99967C4.55765 3.3335 4.13372 3.50909 3.82116 3.82165C3.5086 4.13421 3.33301 4.55814 3.33301 5.00016V15.0002C3.33301 15.4422 3.5086 15.8661 3.82116 16.1787C4.13372 16.4912 4.55765 16.6668 4.99967 16.6668H9.16634C9.60837 16.6668 10.0323 16.4912 10.3449 16.1787C10.6574 15.8661 10.833 15.4422 10.833 15.0002V14.1668" stroke="#FF5C5C" stroke-linecap="round" stroke-linejoin="round"/>
</svg>
