<svg width="21" height="21" viewBox="0 0 21 21" fill="none" xmlns="http://www.w3.org/2000/svg">
<g id="Icons">
<g id="Shape">
<path fill-rule="evenodd" clip-rule="evenodd" d="M3.83398 4.91181C3.83398 4.5463 4.13209 4.25 4.49982 4.25H10.4924C10.8601 4.25 11.1582 4.5463 11.1582 4.91181V12.8535C11.1582 13.219 10.8601 13.5153 10.4924 13.5153H4.49982C4.13209 13.5153 3.83398 13.219 3.83398 12.8535V4.91181ZM5.16566 5.57362V12.1917H9.82652V5.57362H5.16566Z" fill="white"/>
<path fill-rule="evenodd" clip-rule="evenodd" d="M12.5128 7.71715C12.6089 7.36434 12.9746 7.15576 13.3295 7.25127L16.0086 7.97217C16.3629 8.06751 16.5728 8.42986 16.4778 8.78227L14.2375 17.0926C14.1423 17.4457 13.7772 17.6552 13.422 17.5606L8.32235 16.2024C7.96715 16.1078 7.75636 15.7449 7.85153 15.3919C7.94671 15.0388 8.31181 14.8293 8.66701 14.9239L13.1235 16.1108L15.0196 9.07731L12.9815 8.5289C12.6266 8.43339 12.4167 8.06995 12.5128 7.71715Z" fill="white"/>
</g>
</g>
</svg>
