<svg width="36" height="36" viewBox="0 0 36 36" fill="none" xmlns="http://www.w3.org/2000/svg">
<rect width="36" height="36" rx="10" fill="#70EDEF" fill-opacity="0.1"/>
<path d="M16.9662 14.98C16.8395 14.98 16.7128 14.9333 16.6128 14.8333L14.4861 12.7067L12.3595 14.8333C12.1661 15.0267 11.8461 15.0267 11.6528 14.8333C11.4595 14.64 11.4595 14.32 11.6528 14.1267L14.1328 11.6466C14.2262 11.5533 14.3528 11.5 14.4861 11.5C14.6195 11.5 14.7462 11.5533 14.8395 11.6466L17.3195 14.1267C17.5128 14.32 17.5128 14.64 17.3195 14.8333C17.2195 14.9333 17.0928 14.98 16.9662 14.98Z" fill="#70EDEF"/>
<path d="M14.4873 24.5C14.214 24.5 13.9873 24.2733 13.9873 24V12C13.9873 11.7267 14.214 11.5 14.4873 11.5C14.7606 11.5 14.9873 11.7267 14.9873 12V24C14.9873 24.2733 14.7606 24.5 14.4873 24.5Z" fill="#70EDEF"/>
<path d="M21.5203 24.4993C21.387 24.4993 21.2603 24.446 21.167 24.3527L18.687 21.8727C18.4937 21.6793 18.4937 21.3593 18.687 21.166C18.8803 20.9727 19.2003 20.9727 19.3937 21.166L21.5203 23.2927L23.647 21.166C23.8403 20.9727 24.1603 20.9727 24.3537 21.166C24.547 21.3593 24.547 21.6793 24.3537 21.8727L21.8736 24.3527C21.7803 24.446 21.647 24.4993 21.5203 24.4993Z" fill="#70EDEF"/>
<path d="M21.5127 24.5C21.2394 24.5 21.0127 24.2733 21.0127 24V12C21.0127 11.7267 21.2394 11.5 21.5127 11.5C21.786 11.5 22.0127 11.7267 22.0127 12V24C22.0127 24.2733 21.7927 24.5 21.5127 24.5Z" fill="#70EDEF"/>
</svg>
