<svg width="25" height="24" viewBox="0 0 25 24" fill="none" xmlns="http://www.w3.org/2000/svg">
<circle cx="16" cy="8.5" r="6.5" fill="#1C1924"/>
<path d="M22.5 17C22.5 17.7956 22.1839 18.5587 21.6213 19.1213C21.0587 19.6839 20.2956 20 19.5 20H17.5M17.5 20L19.5 18M17.5 20L19.5 22M2.5 7C2.5 6.20435 2.81607 5.44129 3.37868 4.87868C3.94129 4.31607 4.70435 4 5.5 4H7.5M7.5 4L5.5 6M7.5 4L5.5 2" stroke="#1C1924" stroke-width="1.5" stroke-linecap="round" stroke-linejoin="round"/>
<circle cx="9" cy="15.5" r="6.5" fill="#1C1924"/>
<path d="M11.4038 13.0962C12.6228 14.3152 14.2761 15 16 15C17.7239 15 19.3772 14.3152 20.5962 13.0962C21.8152 11.8772 22.5 10.2239 22.5 8.5C22.5 6.77609 21.8152 5.12279 20.5962 3.90381C19.3772 2.68482 17.7239 2 16 2C14.2761 2 12.6228 2.68482 11.4038 3.90381C10.1848 5.12279 9.5 6.77609 9.5 8.5C9.5 10.2239 10.1848 11.8772 11.4038 13.0962Z" stroke="#70EDEF" stroke-linecap="round" stroke-linejoin="round"/>
</svg>
