<svg width="20" height="20" viewBox="0 0 20 20" fill="none" xmlns="http://www.w3.org/2000/svg">
<path d="M9.95866 14.9998C10.2503 14.9998 10.497 14.899 10.6987 14.6973C10.9003 14.4957 11.0009 14.2493 11.0003 13.9582C11.0003 13.6665 10.8998 13.4198 10.6987 13.2182C10.4975 13.0165 10.2509 12.9159 9.95866 12.9165C9.66699 12.9165 9.4206 13.0173 9.21949 13.219C9.01838 13.4207 8.91755 13.6671 8.91699 13.9582C8.91699 14.2498 9.01783 14.4965 9.21949 14.6982C9.42116 14.8998 9.66755 15.0004 9.95866 14.9998ZM9.20866 11.7915H10.7503C10.7503 11.3332 10.8025 10.9721 10.907 10.7082C11.0114 10.4443 11.3064 10.0832 11.792 9.62484C12.1531 9.26373 12.4378 8.91984 12.6462 8.59317C12.8545 8.2665 12.9587 7.87428 12.9587 7.4165C12.9587 6.63873 12.6739 6.0415 12.1045 5.62484C11.535 5.20817 10.8614 4.99984 10.0837 4.99984C9.29199 4.99984 8.64977 5.20817 8.15699 5.62484C7.66421 6.0415 7.32033 6.5415 7.12533 7.12484L8.50033 7.6665C8.56977 7.4165 8.72616 7.14567 8.96949 6.854C9.21282 6.56234 9.58421 6.4165 10.0837 6.4165C10.5281 6.4165 10.8614 6.53817 11.0837 6.7815C11.3059 7.02484 11.417 7.29206 11.417 7.58317C11.417 7.86095 11.3337 8.1215 11.167 8.36484C11.0003 8.60817 10.792 8.83373 10.542 9.0415C9.93088 9.58317 9.55588 9.99289 9.41699 10.2707C9.2781 10.5484 9.20866 11.0554 9.20866 11.7915ZM10.0003 18.3332C8.84755 18.3332 7.76421 18.1146 6.75033 17.6773C5.73644 17.2401 4.85449 16.6462 4.10449 15.8957C3.35449 15.1457 2.76088 14.2637 2.32366 13.2498C1.88644 12.2359 1.66755 11.1526 1.66699 9.99984C1.66699 8.84706 1.88588 7.76373 2.32366 6.74984C2.76144 5.73595 3.35505 4.854 4.10449 4.104C4.85449 3.354 5.73644 2.76039 6.75033 2.32317C7.76421 1.88595 8.84755 1.66706 10.0003 1.6665C11.1531 1.6665 12.2364 1.88539 13.2503 2.32317C14.2642 2.76095 15.1462 3.35456 15.8962 4.104C16.6462 4.854 17.24 5.73595 17.6778 6.74984C18.1156 7.76373 18.3342 8.84706 18.3337 9.99984C18.3337 11.1526 18.1148 12.2359 17.677 13.2498C17.2392 14.2637 16.6456 15.1457 15.8962 15.8957C15.1462 16.6457 14.2642 17.2396 13.2503 17.6773C12.2364 18.1151 11.1531 18.3337 10.0003 18.3332ZM10.0003 16.6665C11.8614 16.6665 13.4378 16.0207 14.7295 14.729C16.0212 13.4373 16.667 11.8609 16.667 9.99984C16.667 8.13873 16.0212 6.56234 14.7295 5.27067C13.4378 3.979 11.8614 3.33317 10.0003 3.33317C8.13921 3.33317 6.56283 3.979 5.27116 5.27067C3.97949 6.56234 3.33366 8.13873 3.33366 9.99984C3.33366 11.8609 3.97949 13.4373 5.27116 14.729C6.56283 16.0207 8.13921 16.6665 10.0003 16.6665Z" fill="#70EDEF"/>
</svg>
