<svg width="19" height="18" viewBox="0 0 19 18" fill="none" xmlns="http://www.w3.org/2000/svg">
<g id="mdi:hide">
<path id="Vector" d="M9.3725 6.75L11.75 9.12V9C11.75 8.40326 11.5129 7.83097 11.091 7.40901C10.669 6.98705 10.0967 6.75 9.5 6.75H9.3725ZM6.1475 7.35L7.31 8.5125C7.2725 8.67 7.25 8.8275 7.25 9C7.25 9.59674 7.48705 10.169 7.90901 10.591C8.33097 11.0129 8.90326 11.25 9.5 11.25C9.665 11.25 9.83 11.2275 9.9875 11.19L11.15 12.3525C10.6475 12.6 10.0925 12.75 9.5 12.75C8.50544 12.75 7.55161 12.3549 6.84835 11.6517C6.14509 10.9484 5.75 9.99456 5.75 9C5.75 8.4075 5.9 7.8525 6.1475 7.35ZM2 3.2025L3.71 4.9125L4.0475 5.25C2.81 6.225 1.835 7.5 1.25 9C2.5475 12.2925 5.75 14.625 9.5 14.625C10.6625 14.625 11.7725 14.4 12.785 13.995L13.1075 14.31L15.2975 16.5L16.25 15.5475L2.9525 2.25M9.5 5.25C10.4946 5.25 11.4484 5.64509 12.1517 6.34835C12.8549 7.05161 13.25 8.00544 13.25 9C13.25 9.48 13.1525 9.945 12.98 10.365L15.1775 12.5625C16.3025 11.625 17.2025 10.395 17.75 9C16.4525 5.7075 13.25 3.375 9.5 3.375C8.45 3.375 7.445 3.5625 6.5 3.9L8.1275 5.5125C8.555 5.3475 9.0125 5.25 9.5 5.25Z" fill="#A6A0BB"/>
</g>
</svg>
