<svg width="54" height="54" viewBox="0 0 54 54" fill="none" xmlns="http://www.w3.org/2000/svg">
<g clip-path="url(#clip0_124_13569)">
<path d="M27 4.5C39.4268 4.5 49.5 14.5733 49.5 27C49.5 39.4268 39.4268 49.5 27 49.5C14.5733 49.5 4.5 39.4268 4.5 27C4.5 14.5733 14.5733 4.5 27 4.5ZM27 9C22.2261 9 17.6477 10.8964 14.2721 14.2721C10.8964 17.6477 9 22.2261 9 27C9 31.7739 10.8964 36.3523 14.2721 39.7279C17.6477 43.1036 22.2261 45 27 45C31.7739 45 36.3523 43.1036 39.7279 39.7279C43.1036 36.3523 45 31.7739 45 27C45 22.2261 43.1036 17.6477 39.7279 14.2721C36.3523 10.8964 31.7739 9 27 9ZM27 33.75C27.5967 33.75 28.169 33.9871 28.591 34.409C29.0129 34.831 29.25 35.4033 29.25 36C29.25 36.5967 29.0129 37.169 28.591 37.591C28.169 38.0129 27.5967 38.25 27 38.25C26.4033 38.25 25.831 38.0129 25.409 37.591C24.9871 37.169 24.75 36.5967 24.75 36C24.75 35.4033 24.9871 34.831 25.409 34.409C25.831 33.9871 26.4033 33.75 27 33.75ZM27 13.5C27.5967 13.5 28.169 13.7371 28.591 14.159C29.0129 14.581 29.25 15.1533 29.25 15.75V29.25C29.25 29.8467 29.0129 30.419 28.591 30.841C28.169 31.2629 27.5967 31.5 27 31.5C26.4033 31.5 25.831 31.2629 25.409 30.841C24.9871 30.419 24.75 29.8467 24.75 29.25V15.75C24.75 15.1533 24.9871 14.581 25.409 14.159C25.831 13.7371 26.4033 13.5 27 13.5Z" fill="#FF5C5C"/>
</g>
<defs>
<clipPath id="clip0_124_13569">
<rect width="54" height="54" fill="white"/>
</clipPath>
</defs>
</svg>
