<svg width="20" height="20" viewBox="0 0 20 20" fill="none" xmlns="http://www.w3.org/2000/svg">
<path fill-rule="evenodd" clip-rule="evenodd" d="M12.5 6.66667C12.5 5.57833 13.1958 4.65167 14.1667 4.30833L14.1667 3.33333C14.1667 3.11232 14.2545 2.90036 14.4107 2.74408C14.567 2.5878 14.779 2.5 15 2.5C15.221 2.5 15.433 2.5878 15.5893 2.74408C15.7455 2.90036 15.8333 3.11232 15.8333 3.33333L15.8333 4.30833C16.3213 4.4805 16.7438 4.79978 17.0427 5.22217C17.3415 5.64455 17.502 6.14924 17.502 6.66667C17.502 7.18409 17.3415 7.68878 17.0427 8.11117C16.7438 8.53355 16.3213 8.85283 15.8333 9.025L15.8333 16.6667C15.8333 16.8877 15.7455 17.0996 15.5893 17.2559C15.433 17.4122 15.221 17.5 15 17.5C14.779 17.5 14.567 17.4122 14.4107 17.2559C14.2545 17.0996 14.1667 16.8877 14.1667 16.6667L14.1667 9.025C13.6791 8.85249 13.257 8.53306 12.9585 8.11071C12.66 7.68836 12.4998 7.18385 12.5 6.66667ZM14.1667 6.66667C14.1667 6.88768 14.2545 7.09964 14.4107 7.25592C14.567 7.4122 14.779 7.5 15 7.5C15.221 7.5 15.433 7.4122 15.5893 7.25592C15.7455 7.09964 15.8333 6.88768 15.8333 6.66667C15.8333 6.44565 15.7455 6.23369 15.5893 6.07741C15.433 5.92113 15.221 5.83333 15 5.83333C14.779 5.83333 14.567 5.92113 14.4107 6.07741C14.2545 6.23369 14.1667 6.44565 14.1667 6.66667ZM7.5 13.3333C7.49993 12.8425 7.64435 12.3625 7.91524 11.9532C8.18613 11.5439 8.57151 11.2234 9.02333 11.0317L9.16667 10.9758L9.16667 3.33333C9.1669 3.12093 9.24823 2.91664 9.39404 2.76219C9.53985 2.60775 9.73913 2.5148 9.95116 2.50236C10.1632 2.48991 10.372 2.55889 10.5349 2.69522C10.6977 2.83155 10.8024 3.02492 10.8275 3.23583L10.8333 3.33333L10.8333 10.975C11.3086 11.143 11.7219 11.4507 12.0193 11.8577C12.3166 12.2648 12.484 12.7521 12.4995 13.256C12.515 13.7598 12.3779 14.2565 12.1061 14.6811C11.8344 15.1056 11.4407 15.4381 10.9767 15.635L10.8333 15.6917L10.8333 16.6667C10.8331 16.8791 10.7518 17.0834 10.606 17.2378C10.4602 17.3923 10.2609 17.4852 10.0488 17.4976C9.8368 17.5101 9.62802 17.4411 9.46514 17.3048C9.30226 17.1685 9.19759 16.9751 9.1725 16.7642L9.16667 16.6667L9.16667 15.6917C8.6791 15.5192 8.25702 15.1997 7.95853 14.7774C7.66005 14.355 7.49985 13.8505 7.5 13.3333ZM9.16667 13.3333C9.16667 13.5543 9.25446 13.7663 9.41074 13.9226C9.56702 14.0789 9.77899 14.1667 10 14.1667C10.221 14.1667 10.433 14.0789 10.5893 13.9226C10.7455 13.7663 10.8333 13.5543 10.8333 13.3333C10.8333 13.1123 10.7455 12.9004 10.5893 12.7441C10.433 12.5878 10.221 12.5 10 12.5C9.77899 12.5 9.56702 12.5878 9.41074 12.7441C9.25446 12.9004 9.16667 13.1123 9.16667 13.3333ZM2.5 6.66667C2.5 5.57833 3.19583 4.65167 4.16667 4.30833L4.16667 3.33333C4.16667 3.11232 4.25446 2.90036 4.41074 2.74408C4.56702 2.5878 4.77899 2.5 5 2.5C5.22101 2.5 5.43297 2.5878 5.58925 2.74408C5.74553 2.90036 5.83333 3.11232 5.83333 3.33333L5.83333 4.30833C6.32128 4.4805 6.7438 4.79978 7.04267 5.22217C7.34155 5.64455 7.50204 6.14924 7.50204 6.66667C7.50204 7.18409 7.34155 7.68878 7.04268 8.11117C6.74381 8.53355 6.32128 8.85283 5.83333 9.025L5.83333 16.6667C5.83333 16.8877 5.74554 17.0996 5.58926 17.2559C5.43298 17.4122 5.22101 17.5 5 17.5C4.77899 17.5 4.56702 17.4122 4.41074 17.2559C4.25446 17.0996 4.16667 16.8877 4.16667 16.6667L4.16667 9.025C3.6791 8.85249 3.25702 8.53306 2.95853 8.11071C2.66005 7.68836 2.49985 7.18385 2.5 6.66667ZM4.16667 6.66667C4.16667 6.88768 4.25446 7.09964 4.41074 7.25592C4.56702 7.4122 4.77899 7.5 5 7.5C5.22101 7.5 5.43297 7.4122 5.58925 7.25592C5.74554 7.09964 5.83333 6.88768 5.83333 6.66667C5.83333 6.44565 5.74554 6.23369 5.58925 6.07741C5.43297 5.92113 5.22101 5.83333 5 5.83333C4.77899 5.83333 4.56702 5.92113 4.41074 6.07741C4.25446 6.23369 4.16667 6.44565 4.16667 6.66667Z" fill="#70EDEF"/>
</svg>
