<svg width="151" height="151" viewBox="0 0 151 151" fill="none" xmlns="http://www.w3.org/2000/svg">
<rect x="0.5" y="0.5" width="150" height="150" rx="75" fill="#1C2730"/>
<rect x="42" y="40.7295" width="30.5045" height="32.2707" rx="2.80702" fill="#6C7CA7"/>
<path d="M61.5281 44.7295H52.9764C51.7335 44.7295 50.726 45.7371 50.726 46.9799V55.5317C50.726 56.7746 51.7335 57.7821 52.9764 57.7821H61.5281C62.771 57.7821 63.7786 56.7746 63.7786 55.5317V46.9799C63.7786 45.7371 62.771 44.7295 61.5281 44.7295Z" fill="#70EDEF"/>
<path d="M63.1034 61.291H51.4011C50.6553 61.291 50.0508 61.8956 50.0508 62.6413C50.0508 63.387 50.6553 63.9916 51.4011 63.9916H63.1034C63.8491 63.9916 64.4537 63.387 64.4537 62.6413C64.4537 61.8956 63.8491 61.291 63.1034 61.291Z" fill="#413B54"/>
<path d="M67.1543 67.5H47.3503C46.6045 67.5 46 67.8358 46 68.25C46 68.6642 46.6045 69 47.3503 69H67.1543C67.9 69 68.5045 68.6642 68.5045 68.25C68.5045 67.8358 67.9 67.5 67.1543 67.5Z" fill="#586386"/>
<rect x="78.4955" y="40.7295" width="30.5045" height="32.2707" rx="2.80702" fill="#6C7CA7"/>
<path d="M98.0236 44.7295H89.4719C88.229 44.7295 87.2214 45.7371 87.2214 46.9799V55.5317C87.2214 56.7746 88.229 57.7821 89.4719 57.7821H98.0236C99.2665 57.7821 100.274 56.7746 100.274 55.5317V46.9799C100.274 45.7371 99.2665 44.7295 98.0236 44.7295Z" fill="#70EDEF"/>
<path d="M99.5989 61.291H87.8965C87.1508 61.291 86.5463 61.8956 86.5463 62.6413C86.5463 63.387 87.1508 63.9916 87.8965 63.9916H99.5989C100.345 63.9916 100.949 63.387 100.949 62.6413C100.949 61.8956 100.345 61.291 99.5989 61.291Z" fill="#413B54"/>
<path d="M103.65 67.5H83.8458C83.1 67.5 82.4955 67.8358 82.4955 68.25C82.4955 68.6642 83.1 69 83.8458 69H103.65C104.395 69 105 68.6642 105 68.25C105 67.8358 104.395 67.5 103.65 67.5Z" fill="#586386"/>
<rect x="42" y="78" width="30.5045" height="32.2707" rx="2.80702" fill="#6C7CA7"/>
<path d="M61.5281 82H52.9764C51.7335 82 50.726 83.0076 50.726 84.2505V92.8022C50.726 94.0451 51.7335 95.0526 52.9764 95.0526H61.5281C62.771 95.0526 63.7786 94.0451 63.7786 92.8022V84.2505C63.7786 83.0076 62.771 82 61.5281 82Z" fill="#70EDEF"/>
<path d="M63.1034 98.5615H51.4011C50.6553 98.5615 50.0508 99.1661 50.0508 99.9118C50.0508 100.658 50.6553 101.262 51.4011 101.262H63.1034C63.8491 101.262 64.4537 100.658 64.4537 99.9118C64.4537 99.1661 63.8491 98.5615 63.1034 98.5615Z" fill="#413B54"/>
<path d="M67.1543 104.771H47.3503C46.6045 104.771 46 105.106 46 105.521C46 105.935 46.6045 106.271 47.3503 106.271H67.1543C67.9 106.271 68.5045 105.935 68.5045 105.521C68.5045 105.106 67.9 104.771 67.1543 104.771Z" fill="#586386"/>
<rect x="78.4955" y="78" width="30.5045" height="32.2707" rx="2.80702" fill="#6C7CA7"/>
<path d="M98.0236 82H89.4719C88.229 82 87.2214 83.0076 87.2214 84.2505V92.8022C87.2214 94.0451 88.229 95.0526 89.4719 95.0526H98.0236C99.2665 95.0526 100.274 94.0451 100.274 92.8022V84.2505C100.274 83.0076 99.2665 82 98.0236 82Z" fill="#70EDEF"/>
<path d="M99.5989 98.5615H87.8965C87.1508 98.5615 86.5463 99.1661 86.5463 99.9118C86.5463 100.658 87.1508 101.262 87.8965 101.262H99.5989C100.345 101.262 100.949 100.658 100.949 99.9118C100.949 99.1661 100.345 98.5615 99.5989 98.5615Z" fill="#413B54"/>
<path d="M103.65 104.771H83.8458C83.1 104.771 82.4955 105.106 82.4955 105.521C82.4955 105.935 83.1 106.271 83.8458 106.271H103.65C104.395 106.271 105 105.935 105 105.521C105 105.106 104.395 104.771 103.65 104.771Z" fill="#586386"/>
</svg>
