<svg width="151" height="151" viewBox="0 0 151 151" fill="none" xmlns="http://www.w3.org/2000/svg">
<rect x="0.5" y="0.5" width="150" height="150" rx="75" fill="#1C2730"/>
<path fill-rule="evenodd" clip-rule="evenodd" d="M94.0525 96.9894L93.5509 98.97L44.0434 86.4377L44.5443 84.4571C48.5055 85.4595 51.5781 81.644 52.0751 79.6837L54.9319 68.3957C57.1943 60.181 64.6748 54.4967 73.1962 54.5177C73.9259 51.7929 76.7271 50.1765 79.4512 50.9069C82.176 51.6373 83.793 54.4379 83.062 57.1626C90.5352 61.3338 94.3657 69.9317 92.4674 78.2765L89.7009 89.2082C89.1137 91.5249 92.0725 96.4879 94.0525 96.9894Z" fill="#6C7CA7"/>
<path fill-rule="evenodd" clip-rule="evenodd" d="M59.903 92.5703C60.3783 97.6248 64.8607 101.338 69.9152 100.863C72.6681 100.605 75.1587 99.1203 76.6967 96.8212L59.903 92.5703Z" fill="#70EDEF"/>
<path fill-rule="evenodd" clip-rule="evenodd" d="M99.8199 62.2017C100.973 63.5886 101.838 65.222 102.427 66.9535C103.027 68.6856 103.319 70.5256 103.35 72.367C103.35 73.2883 103.284 74.2083 103.165 75.1205C103.008 76.0281 102.826 76.9291 102.541 77.8021C101.99 79.5486 101.157 81.2049 100.022 82.6147C99.9729 82.6755 99.8853 82.6846 99.8245 82.6362C99.7774 82.5977 99.7617 82.5349 99.78 82.48C100.371 80.7975 100.861 79.138 101.19 77.4542C101.251 77.0292 101.334 76.6107 101.405 76.1902C101.453 75.7659 101.517 75.3448 101.554 74.9211C101.581 74.4967 101.636 74.0749 101.654 73.6506C101.661 73.2255 101.681 72.8012 101.679 72.3768C101.689 70.6773 101.499 68.9805 101.169 67.2961C100.83 65.6104 100.319 63.9502 99.7055 62.2677C99.6931 62.2331 99.7107 62.1945 99.7454 62.1821C99.7728 62.1716 99.8023 62.1808 99.8199 62.2017Z" fill="#70EDEF"/>
<path fill-rule="evenodd" clip-rule="evenodd" d="M106.313 62.7906C107.426 64.0729 108.264 65.5938 108.848 67.2082C109.433 68.8246 109.771 70.5417 109.831 72.2693C109.897 73.9962 109.686 75.7323 109.225 77.386C108.764 79.039 108.045 80.6188 107.031 81.9801C107.025 81.9886 107.012 81.9906 107.005 81.9847C106.998 81.9795 106.995 81.971 106.997 81.9638C107.417 80.3252 107.769 78.731 107.982 77.1283C108.195 75.5263 108.265 73.9249 108.206 72.3295C108.14 70.7346 107.947 69.1451 107.608 67.5672C107.27 65.9874 106.792 64.4286 106.247 62.8285C106.241 62.8083 106.251 62.7867 106.272 62.7795C106.287 62.7743 106.303 62.7788 106.313 62.7906Z" fill="#70EDEF"/>
<path fill-rule="evenodd" clip-rule="evenodd" d="M46.9664 70.9728C46.6133 69.2145 46.6094 67.3777 46.8892 65.5821C47.1599 63.782 47.7419 62.027 48.5501 60.3877C49.3779 58.7582 50.4359 57.2418 51.7136 55.9445C52.9821 54.6426 54.4534 53.5395 56.0763 52.7693C56.1057 52.7555 56.1397 52.768 56.1535 52.7967C56.1646 52.8203 56.1587 52.8477 56.1397 52.8647C54.8195 54.0633 53.604 55.3129 52.5296 56.6658C51.4631 58.0213 50.5196 59.4618 49.7572 60.9951C48.9738 62.5187 48.3762 64.1331 47.9217 65.7986C47.4745 67.4679 47.1985 69.1909 47.0226 70.9701C47.0207 70.9852 47.0069 70.9969 46.9912 70.9956C46.9788 70.9943 46.969 70.9845 46.9664 70.9728Z" fill="#70EDEF"/>
<path fill-rule="evenodd" clip-rule="evenodd" d="M41.4237 67.4975C41.0896 65.8465 41.0837 64.1261 41.3263 62.4417C41.5768 60.7573 42.077 59.1023 42.8152 57.5611C43.5456 56.0173 44.4885 54.5728 45.623 53.3076C46.7522 52.0404 48.0574 50.9327 49.5116 50.0957C48.3242 51.2779 47.2335 52.5112 46.2821 53.8372C45.334 55.1646 44.5094 56.5646 43.8412 58.0371C43.1794 59.5116 42.6485 61.043 42.2699 62.6235C41.8808 64.2033 41.6474 65.8242 41.4793 67.4949C41.4774 67.5099 41.4643 67.5211 41.4479 67.5198C41.4362 67.5184 41.4257 67.5093 41.4237 67.4975Z" fill="#70EDEF"/>
<path fill-rule="evenodd" clip-rule="evenodd" d="M94.0563 97.0006C94.0563 97.0006 91.1282 95.8629 89.589 94.2393C87.4455 91.9788 87.5868 89.5123 89.0358 84.752C90.7405 79.0835 90.694 73.1123 90.0375 70.3751C87.7509 60.8375 83.0658 57.1738 83.0658 57.1738C90.5391 61.345 94.3695 69.9429 92.4713 78.2878L89.7047 89.2194C89.2195 90.8345 92.0764 96.4991 94.0563 97.0006L93.5548 98.9812L94.0563 97.0006Z" fill="#A6B4DC"/>
</svg>
