<svg width="151" height="151" viewBox="0 0 151 151" fill="none" xmlns="http://www.w3.org/2000/svg">
<rect x="0.5" y="0.5" width="150" height="150" rx="75" fill="#1C2730"/>
<path fill-rule="evenodd" clip-rule="evenodd" d="M101.633 110.629H56.9882C53.8459 110.629 51.2737 108.049 51.2737 104.896V41.2313C51.2737 38.0784 53.8459 35.5 56.9882 35.5H101.633C104.776 35.5 107.348 38.0784 107.348 41.2313V104.896C107.348 108.049 104.776 110.629 101.633 110.629Z" fill="#413B54"/>
<path fill-rule="evenodd" clip-rule="evenodd" d="M97.8217 113.351H53.1773C50.035 113.351 47.4629 110.771 47.4629 107.618V43.953C47.4629 40.8001 50.035 38.2217 53.1773 38.2217H97.8217C100.965 38.2217 103.537 40.8001 103.537 43.953V107.618C103.537 110.771 100.965 113.351 97.8217 113.351Z" fill="#242438"/>
<path fill-rule="evenodd" clip-rule="evenodd" d="M94.1147 115.5H49.378C46.2292 115.5 43.6517 112.931 43.6517 109.791V46.3892C43.6517 43.2494 46.2292 40.6816 49.378 40.6816H94.1147C97.2647 40.6816 99.8422 43.2494 99.8422 46.3892V109.791C99.8422 112.931 97.2647 115.5 94.1147 115.5Z" fill="#D8DBEA"/>
<path fill-rule="evenodd" clip-rule="evenodd" d="M94.1147 115.5H49.378C46.2292 115.5 43.6517 112.931 43.6517 109.791V46.3892C43.6517 43.2494 46.2292 40.6816 49.378 40.6816H94.1147C97.2647 40.6816 99.8422 43.2494 99.8422 46.3892V109.791C99.8422 112.931 97.2647 115.5 94.1147 115.5Z" fill="#6C7CA7"/>
<path fill-rule="evenodd" clip-rule="evenodd" d="M87.6666 59.9989H54.6231C53.6794 59.9989 52.907 59.264 52.907 58.3663C52.907 57.4673 53.6794 56.7324 54.6231 56.7324H87.6666C88.6102 56.7324 89.3827 57.4673 89.3827 58.3663C89.3827 59.264 88.6102 59.9989 87.6666 59.9989Z" fill="#70EDEF"/>
<path fill-rule="evenodd" clip-rule="evenodd" d="M87.6666 69.7977H54.6231C53.6794 69.7977 52.907 69.0629 52.907 68.1651C52.907 67.2661 53.6794 66.5312 54.6231 66.5312H87.6666C88.6102 66.5312 89.3827 67.2661 89.3827 68.1651C89.3827 69.0629 88.6102 69.7977 87.6666 69.7977Z" fill="#70EDEF"/>
<path fill-rule="evenodd" clip-rule="evenodd" d="M87.6666 79.5975H54.6231C53.6794 79.5975 52.907 78.8627 52.907 77.9649C52.907 77.0671 53.6794 76.3311 54.6231 76.3311H87.6666C88.6102 76.3311 89.3827 77.0671 89.3827 77.9649C89.3827 78.8627 88.6102 79.5975 87.6666 79.5975Z" fill="#70EDEF"/>
<path fill-rule="evenodd" clip-rule="evenodd" d="M87.6666 89.3973H54.6231C53.6794 89.3973 52.907 88.6625 52.907 87.7647C52.907 86.8657 53.6794 86.1309 54.6231 86.1309H87.6666C88.6102 86.1309 89.3827 86.8657 89.3827 87.7647C89.3827 88.6625 88.6102 89.3973 87.6666 89.3973Z" fill="#70EDEF"/>
<path fill-rule="evenodd" clip-rule="evenodd" d="M71.8712 99.1962H54.6304C53.6827 99.1962 52.907 98.4613 52.907 97.5635C52.907 96.6646 53.6827 95.9297 54.6304 95.9297H71.8712C72.8189 95.9297 73.5947 96.6646 73.5947 97.5635C73.5947 98.4613 72.8189 99.1962 71.8712 99.1962Z" fill="#70EDEF"/>
</svg>
