<svg width="17" height="17" viewBox="0 0 17 17" fill="none" xmlns="http://www.w3.org/2000/svg">
<g id="Out">
<path id="Vector 89" d="M14.75 2.08508V1.41842H15.4167V2.08508H14.75ZM8.27696 9.50093C8.01661 9.76128 7.5945 9.76128 7.33415 9.50093C7.0738 9.24058 7.0738 8.81847 7.33415 8.55812L8.27696 9.50093ZM14.0833 7.64064V2.08508H15.4167V7.64064H14.0833ZM14.75 2.75175H9.19444V1.41842H14.75V2.75175ZM15.2214 2.55649L8.27696 9.50093L7.33415 8.55812L14.2786 1.61368L15.2214 2.55649Z" fill="#70EDEF"/>
<path id="Vector 90" d="M14.0557 10.3072V10.3072C14.0557 12.2249 12.5011 13.7794 10.5834 13.7794H8.50011C5.43186 13.7794 2.94455 11.2921 2.94455 8.22389V6.14056C2.94455 4.2229 4.49912 2.66833 6.41678 2.66833V2.66833" stroke="#70EDEF" stroke-width="1.33333" stroke-linecap="round"/>
</g>
</svg>
