<svg width="34" height="34" viewBox="0 0 34 34" fill="none" xmlns="http://www.w3.org/2000/svg">
<rect width="34.0001" height="34" rx="10" fill="#FF5C5C" fill-opacity="0.1"/>
<path d="M21.325 23.8L20.175 24.95C19.8917 25.2333 19.5417 25.3793 19.125 25.388C18.7083 25.3967 18.35 25.2507 18.05 24.95C17.7667 24.6667 17.625 24.3127 17.625 23.888C17.625 23.4633 17.7667 23.109 18.05 22.825L19.2 21.675C19.1333 21.4917 19.0833 21.3 19.05 21.1C19.0167 20.9 19 20.7 19 20.5C19 19.5333 19.3417 18.7083 20.025 18.025C20.7083 17.3417 21.5333 17 22.5 17C22.65 17 22.8 17.0043 22.95 17.013C23.1 17.0217 23.2417 17.0507 23.375 17.1C23.5583 17.1667 23.671 17.3043 23.713 17.513C23.755 17.7217 23.709 17.8923 23.575 18.025L22.5 19.1C22.3167 19.2833 22.225 19.5167 22.225 19.8C22.225 20.0833 22.3167 20.3167 22.5 20.5C22.6833 20.6833 22.9167 20.775 23.2 20.775C23.4833 20.775 23.7167 20.6833 23.9 20.5L24.975 19.425C25.1083 19.2917 25.279 19.2457 25.487 19.287C25.695 19.3283 25.8327 19.441 25.9 19.625C25.95 19.7583 25.9793 19.9 25.988 20.05C25.9967 20.2 26.0007 20.35 26 20.5C26 21.4667 25.6583 22.2917 24.975 22.975C24.2917 23.6583 23.4667 24 22.5 24C22.2833 24 22.0793 23.9833 21.888 23.95C21.6967 23.9167 21.509 23.8667 21.325 23.8ZM17 10C15.05 10 13.396 10.6793 12.038 12.038C10.68 13.3967 10.0007 15.0507 10 17C10 18.2 10.271 19.3 10.813 20.3C11.355 21.3 12.084 22.1167 13 22.75V21C13 20.7167 13.096 20.4793 13.288 20.288C13.48 20.0967 13.7173 20.0007 14 20C14.2827 19.9993 14.5203 20.0953 14.713 20.288C14.9057 20.4807 15.0013 20.718 15 21V25C15 25.2833 14.904 25.521 14.712 25.713C14.52 25.905 14.2827 26.0007 14 26H10C9.71667 26 9.47933 25.904 9.288 25.712C9.09667 25.52 9.00067 25.2827 9 25C8.99933 24.7173 9.09533 24.48 9.288 24.288C9.48067 24.096 9.718 24 10 24H11.35C10.3167 23.1667 9.5 22.146 8.9 20.938C8.3 19.73 8 18.4173 8 17C8 15.75 8.23767 14.5793 8.713 13.488C9.18833 12.3967 9.82967 11.4467 10.637 10.638C11.4443 9.82933 12.3943 9.18767 13.487 8.713C14.5797 8.23833 15.7507 8.00067 17 8C18.8833 8 20.5793 8.525 22.088 9.575C23.5967 10.625 24.684 11.975 25.35 13.625C25.45 13.8917 25.45 14.15 25.35 14.4C25.25 14.65 25.0667 14.825 24.8 14.925C24.5333 15.025 24.2707 15.025 24.012 14.925C23.7533 14.825 23.5743 14.6417 23.475 14.375C22.9583 13.075 22.1207 12.021 20.962 11.213C19.8033 10.405 18.4827 10.0007 17 10Z" fill="#FF5C5C"/>
</svg>
