<svg width="20" height="20" viewBox="0 0 20 20" fill="none" xmlns="http://www.w3.org/2000/svg">
<path d="M2.30866 8.33329C1.95033 8.33329 1.66699 8.04996 1.66699 7.69163V5.76663C1.66699 3.50829 3.50866 1.66663 5.76699 1.66663H7.69199C8.05032 1.66663 8.33366 1.94996 8.33366 2.30829C8.33366 2.66663 8.05032 2.94996 7.69199 2.94996H5.76699C4.20866 2.94996 2.95033 4.21663 2.95033 5.76663V7.69163C2.95033 8.04996 2.65866 8.33329 2.30866 8.33329Z" fill="#70EDEF"/>
<path d="M17.692 8.33329C17.342 8.33329 17.0503 8.04996 17.0503 7.69163V5.76663C17.0503 4.20829 15.7837 2.94996 14.2337 2.94996H12.3087C11.9503 2.94996 11.667 2.65829 11.667 2.30829C11.667 1.95829 11.9503 1.66663 12.3087 1.66663H14.2337C16.492 1.66663 18.3337 3.50829 18.3337 5.76663V7.69163C18.3337 8.04996 18.0503 8.33329 17.692 8.33329Z" fill="#70EDEF"/>
<path d="M14.2336 18.3333H13.0753C12.7253 18.3333 12.4336 18.05 12.4336 17.6917C12.4336 17.3417 12.7169 17.05 13.0753 17.05H14.2336C15.7919 17.05 17.0503 15.7833 17.0503 14.2333V13.0833C17.0503 12.7333 17.3336 12.4417 17.6919 12.4417C18.0419 12.4417 18.3336 12.725 18.3336 13.0833V14.2333C18.3336 16.4917 16.4919 18.3333 14.2336 18.3333Z" fill="#70EDEF"/>
<path d="M7.69199 18.3333H5.76699C3.50866 18.3333 1.66699 16.4916 1.66699 14.2333V12.3083C1.66699 11.95 1.95033 11.6666 2.30866 11.6666C2.66699 11.6666 2.95033 11.95 2.95033 12.3083V14.2333C2.95033 15.7916 4.21699 17.05 5.76699 17.05H7.69199C8.04199 17.05 8.33366 17.3333 8.33366 17.6916C8.33366 18.05 8.05032 18.3333 7.69199 18.3333Z" fill="#70EDEF"/>
<path d="M15.3829 9.35828H14.2496H5.74961H4.61628C4.25794 9.35828 3.97461 9.64994 3.97461 9.99994C3.97461 10.3499 4.25794 10.6416 4.61628 10.6416H5.74961H14.2496H15.3829C15.7413 10.6416 16.0246 10.3499 16.0246 9.99994C16.0246 9.64994 15.7413 9.35828 15.3829 9.35828Z" fill="#70EDEF"/>
<path d="M5.75 11.6167V11.8917C5.75 13.275 6.86667 14.3917 8.25 14.3917H11.75C13.1333 14.3917 14.25 13.275 14.25 11.8917V11.6167C14.25 11.5167 14.175 11.4417 14.075 11.4417H5.925C5.825 11.4417 5.75 11.5167 5.75 11.6167Z" fill="#70EDEF"/>
<path d="M5.75 8.38328V8.10828C5.75 6.72494 6.86667 5.60828 8.25 5.60828H11.75C13.1333 5.60828 14.25 6.72494 14.25 8.10828V8.38328C14.25 8.48328 14.175 8.55828 14.075 8.55828H5.925C5.825 8.55828 5.75 8.48328 5.75 8.38328Z" fill="#70EDEF"/>
</svg>
