<svg width="17" height="16" viewBox="0 0 17 16" fill="none" xmlns="http://www.w3.org/2000/svg">
<path opacity="0.4" d="M16.2727 9.896C16.1092 9.656 15.8769 9.416 15.5757 9.264C15.3347 9.152 15.1798 8.968 15.0421 8.752C14.6032 8.064 14.8614 7.16 15.5929 6.752C16.4535 6.296 16.7289 5.28 16.2297 4.488L15.6531 3.544C15.1626 2.752 14.0868 2.472 13.2348 2.936C12.4775 3.32 11.505 3.064 11.0661 2.384C10.9284 2.16 10.851 1.92 10.8682 1.68C10.894 1.368 10.7907 1.072 10.6358 0.832C10.3174 0.336 9.74082 0 9.10398 0H7.89054C7.26231 0.016 6.68571 0.336 6.36729 0.832C6.20377 1.072 6.10911 1.368 6.12632 1.68C6.14353 1.92 6.06608 2.16 5.92838 2.384C5.48948 3.064 4.517 3.32 3.76829 2.936C2.90769 2.472 1.84055 2.752 1.34141 3.544L0.764808 4.488C0.274268 5.28 0.549659 6.296 1.40165 6.752C2.13315 7.16 2.39133 8.064 1.96104 8.752C1.81473 8.968 1.65983 9.152 1.41886 9.264C1.12626 9.416 0.868079 9.656 0.730384 9.896C0.411963 10.392 0.429175 11.016 0.747596 11.536L1.34141 12.496C1.65983 13.008 2.25364 13.328 2.87327 13.328C3.16587 13.328 3.51011 13.248 3.7855 13.088C4.00065 12.952 4.25883 12.904 4.54282 12.904C5.39481 12.904 6.10911 13.568 6.12632 14.36C6.12632 15.28 6.91807 16 7.91636 16H9.08677C10.0765 16 10.8682 15.28 10.8682 14.36C10.894 13.568 11.6083 12.904 12.4603 12.904C12.7357 12.904 12.9939 12.952 13.2176 13.088C13.493 13.248 13.8287 13.328 14.1299 13.328C14.7409 13.328 15.3347 13.008 15.6531 12.496L16.2555 11.536C16.5653 11 16.5912 10.392 16.2727 9.896Z" fill="#8A92A6"/>
<path d="M8.5105 10.264C7.15936 10.264 6.06641 9.26402 6.06641 8.00802C6.06641 6.75202 7.15936 5.74402 8.5105 5.74402C9.86163 5.74402 10.9288 6.75202 10.9288 8.00802C10.9288 9.26402 9.86163 10.264 8.5105 10.264Z" fill="#8A92A6"/>
</svg>
