<svg width="17" height="17" viewBox="0 0 17 17" fill="none" xmlns="http://www.w3.org/2000/svg">
<g id="solar:card-broken" clip-path="url(#clip0_172_1549)">
<path id="Vector" d="M15.4464 8.33499C15.4464 5.71571 15.4464 4.40573 14.6323 3.59237C13.8189 2.77832 12.509 2.77832 9.88969 2.77832H7.11135C4.49208 2.77832 3.1821 2.77832 2.36874 3.59237C1.55469 4.40573 1.55469 5.71571 1.55469 8.33499C1.55469 10.9543 1.55469 12.2642 2.36874 13.0776C3.1821 13.8917 4.49208 13.8917 7.11135 13.8917H9.88969C12.509 13.8917 13.8189 13.8917 14.6323 13.0776C15.0866 12.624 15.2873 12.0163 15.3755 11.1133M7.11135 11.1133H4.33302M9.88969 11.1133H8.84781M1.55469 6.94582H5.0276M15.4464 6.94582H7.80594" stroke="#70EDEF" stroke-width="1.5" stroke-linecap="round"/>
</g>
<defs>
<clipPath id="clip0_172_1549">
<rect width="16.67" height="16.67" fill="white" transform="translate(0.165039)"/>
</clipPath>
</defs>
</svg>
