<svg width="20" height="20" viewBox="0 0 20 20" fill="none" xmlns="http://www.w3.org/2000/svg">
<g clip-path="url(#clip0_124_13066)">
<path d="M17.5556 4.1665C18.0489 4.96484 18.3331 5.90484 18.3331 6.91067C18.3331 9.80734 15.9747 12.1557 13.0664 12.1557C12.5364 12.1557 11.3281 12.034 10.7406 11.5457L10.0056 12.2773C9.39305 12.8873 9.88306 12.8873 10.1281 13.3748C10.1281 13.3748 10.7406 14.229 10.1281 15.0832C9.76056 15.5707 8.73139 16.2532 7.55639 15.0832L7.31139 15.3265C7.31139 15.3265 8.04555 16.1807 7.43389 17.0348C7.06639 17.5223 6.08639 18.0098 5.22889 17.1565L4.37222 18.0098C3.78389 18.5957 3.06555 18.254 2.78055 18.0098L2.04472 17.2782C1.35889 16.5948 1.75889 15.8548 2.04472 15.5698L8.41305 9.22817C8.41305 9.22817 7.80055 8.25317 7.80055 6.9115C7.80055 4.01484 10.1589 1.6665 13.0672 1.6665C13.7497 1.6665 14.4014 1.79567 14.9997 2.03067" stroke="#70EDEF" stroke-width="1.5" stroke-linecap="round" stroke-linejoin="round"/>
<path d="M14.9037 6.91155C14.9026 7.39763 14.7085 7.86339 14.364 8.2064C14.0196 8.54941 13.5531 8.7416 13.067 8.74072C12.8262 8.74126 12.5877 8.69438 12.3651 8.60276C12.1424 8.51113 11.94 8.37655 11.7694 8.20669C11.5988 8.03684 11.4633 7.83504 11.3706 7.61282C11.278 7.3906 11.23 7.1523 11.2295 6.91155C11.2299 6.67072 11.2778 6.43234 11.3704 6.21002C11.463 5.9877 11.5985 5.78581 11.7691 5.61587C11.9398 5.44592 12.1422 5.31127 12.3649 5.21959C12.5876 5.12791 12.8262 5.081 13.067 5.08155C13.3077 5.08111 13.5462 5.1281 13.7688 5.21983C13.9914 5.31155 14.1938 5.44623 14.3643 5.61616C14.5349 5.78609 14.6703 5.98795 14.7628 6.21021C14.8554 6.43248 14.9032 6.67079 14.9037 6.91155Z" stroke="#70EDEF" stroke-width="1.5"/>
</g>
<defs>
<clipPath id="clip0_124_13066">
<rect width="20" height="20" fill="white"/>
</clipPath>
</defs>
</svg>
