<svg width="22" height="24" viewBox="0 0 22 24" fill="none" xmlns="http://www.w3.org/2000/svg">
<path d="M21 20.1243V12.2983C21.0001 11.7538 20.889 11.2151 20.6735 10.715C20.458 10.215 20.1428 9.76421 19.747 9.3903L12.374 2.4223C12.0027 2.07122 11.511 1.87561 11 1.87561C10.489 1.87561 9.99734 2.07122 9.626 2.4223L2.253 9.3903C1.85722 9.76421 1.54195 10.215 1.3265 10.715C1.11104 11.2151 0.999942 11.7538 1 12.2983V20.1243C1 20.6547 1.21071 21.1634 1.58579 21.5385C1.96086 21.9136 2.46957 22.1243 3 22.1243H19C19.5304 22.1243 20.0391 21.9136 20.4142 21.5385C20.7893 21.1634 21 20.6547 21 20.1243Z" fill="white" stroke="white" stroke-width="2" stroke-linecap="round" stroke-linejoin="round"/>
</svg>
