<svg width="24" height="24" viewBox="0 0 24 24" fill="none" xmlns="http://www.w3.org/2000/svg">
<path d="M20.5666 14.54V9.46002C20.5659 8.72979 20.3731 8.01259 20.0077 7.38037C19.6423 6.74815 19.117 6.22314 18.4846 5.85802L14.0816 3.30803C13.4486 2.94246 12.7306 2.75 11.9996 2.75C11.2687 2.75 10.5506 2.94246 9.91762 3.30803L5.51462 5.85802C4.88222 6.22314 4.35695 6.74815 3.99152 7.38037C3.62609 8.01259 3.43334 8.72979 3.43262 9.46002V14.54C3.43334 15.2703 3.62609 15.9875 3.99152 16.6197C4.35695 17.2519 4.88222 17.7769 5.51462 18.142L9.91762 20.692C10.5506 21.0576 11.2687 21.25 11.9996 21.25C12.7306 21.25 13.4486 21.0576 14.0816 20.692L18.4846 18.142C19.117 17.7769 19.6423 17.2519 20.0077 16.6197C20.3731 15.9875 20.5659 15.2703 20.5666 14.54Z" stroke="#6C7CA7" stroke-width="1.5" stroke-linecap="round" stroke-linejoin="round"/>
<path d="M12.9056 8.34608H11.0936C10.7269 8.34486 10.3665 8.44048 10.0487 8.62328C9.73083 8.80607 9.46691 9.06956 9.28359 9.38708L8.37659 10.9591C8.19386 11.2756 8.09766 11.6346 8.09766 12.0001C8.09766 12.3655 8.19386 12.7246 8.37659 13.0411L9.28259 14.6131C9.46612 14.9306 9.73026 15.1939 10.0483 15.3766C10.3663 15.5592 10.7269 15.6546 11.0936 15.6531H12.9056C13.2721 15.6543 13.6325 15.5588 13.9503 15.3762C14.2681 15.1936 14.5321 14.9304 14.7156 14.6131L15.6226 13.0411C15.8053 12.7246 15.9015 12.3655 15.9015 12.0001C15.9015 11.6346 15.8053 11.2756 15.6226 10.9591L14.7166 9.38708C14.5331 9.06953 14.269 8.80609 13.951 8.62346C13.633 8.44083 13.2723 8.34548 12.9056 8.34708" stroke="#6C7CA7" stroke-width="1.5" stroke-linecap="round" stroke-linejoin="round"/>
</svg>
