<svg width="199" height="182" viewBox="0 0 199 182" fill="none" xmlns="http://www.w3.org/2000/svg">
<g clip-path="url(#clip0_237_463)">
<path d="M102.404 76.9633C100.827 78.6291 98.1739 78.6291 96.5961 76.9633L85.7187 65.4787C75.9708 55.1867 59.5002 62.4621 59.5002 77.0129V92C59.5002 94.2091 61.2911 96 63.5002 96H135.5C137.709 96 139.5 94.2091 139.5 92V47.8368C139.5 44.2206 135.083 42.4607 132.596 45.0862L102.404 76.9633Z" fill="#70EDEF"/>
<path d="M96.5958 19.0367C98.1736 17.3709 100.826 17.3708 102.404 19.0367L113.282 30.5213C123.029 40.8133 139.5 33.5379 139.5 18.9871V4C139.5 1.79086 137.709 0 135.5 0H63.5C61.2909 0 59.5 1.79086 59.5 4V48.1632C59.5 51.7794 63.9175 53.5393 66.4042 50.9138L96.5958 19.0367Z" fill="#70EDEF"/>
</g>
<path d="M15.0652 168.4C12.4652 168.4 10.1986 167.983 8.26523 167.15C6.3319 166.317 4.8319 165.15 3.76523 163.65C2.7319 162.15 2.21523 160.383 2.21523 158.35V157.1C2.21523 156.933 2.26523 156.8 2.36523 156.7C2.49857 156.567 2.64857 156.5 2.81523 156.5H7.26523C7.4319 156.5 7.56523 156.567 7.66523 156.7C7.79857 156.8 7.86523 156.933 7.86523 157.1V158.05C7.86523 159.583 8.54857 160.867 9.91523 161.9C11.2819 162.9 13.1486 163.4 15.5152 163.4C17.5486 163.4 19.0819 162.967 20.1152 162.1C21.1486 161.233 21.6652 160.117 21.6652 158.75C21.6652 157.817 21.3819 157.033 20.8152 156.4C20.2486 155.733 19.4319 155.133 18.3652 154.6C17.3319 154.067 15.7652 153.4 13.6652 152.6C11.2986 151.733 9.3819 150.917 7.91523 150.15C6.44857 149.383 5.21523 148.35 4.21523 147.05C3.24857 145.717 2.76523 144.067 2.76523 142.1C2.76523 139.167 3.8319 136.85 5.96523 135.15C8.09857 133.45 10.9486 132.6 14.5152 132.6C17.0152 132.6 19.2152 133.033 21.1152 133.9C23.0486 134.767 24.5486 135.983 25.6152 137.55C26.6819 139.083 27.2152 140.867 27.2152 142.9V143.75C27.2152 143.917 27.1486 144.067 27.0152 144.2C26.9152 144.3 26.7819 144.35 26.6152 144.35H22.1152C21.9486 144.35 21.7986 144.3 21.6652 144.2C21.5652 144.067 21.5152 143.917 21.5152 143.75V143.2C21.5152 141.633 20.8652 140.317 19.5652 139.25C18.2986 138.15 16.5319 137.6 14.2652 137.6C12.4319 137.6 10.9986 137.983 9.96523 138.75C8.96523 139.517 8.46523 140.6 8.46523 142C8.46523 143 8.7319 143.817 9.26524 144.45C9.79857 145.083 10.5986 145.667 11.6652 146.2C12.7319 146.7 14.3819 147.35 16.6152 148.15C18.9819 149.05 20.8652 149.867 22.2652 150.6C23.6986 151.333 24.9152 152.367 25.9152 153.7C26.9486 155 27.4652 156.633 27.4652 158.6C27.4652 161.6 26.3486 163.983 24.1152 165.75C21.9152 167.517 18.8986 168.4 15.0652 168.4ZM47.1563 168.5C44.6563 168.5 42.4396 168 40.5063 167C38.5729 165.967 37.0729 164.517 36.0063 162.65C34.9729 160.783 34.4563 158.633 34.4563 156.2V144.8C34.4563 142.4 34.9896 140.283 36.0563 138.45C37.1229 136.583 38.6063 135.15 40.5063 134.15C42.4396 133.117 44.6563 132.6 47.1563 132.6C49.6896 132.6 51.9063 133.117 53.8063 134.15C55.7396 135.15 57.2396 136.583 58.3063 138.45C59.3729 140.283 59.9062 142.4 59.9062 144.8V156.2C59.9062 158.633 59.3729 160.783 58.3063 162.65C57.2396 164.517 55.7396 165.967 53.8063 167C51.9063 168 49.6896 168.5 47.1563 168.5ZM47.1563 163.5C49.2563 163.5 50.9396 162.85 52.2063 161.55C53.4729 160.25 54.1063 158.533 54.1063 156.4V144.75C54.1063 142.583 53.4729 140.85 52.2063 139.55C50.9396 138.25 49.2563 137.6 47.1563 137.6C45.0896 137.6 43.4229 138.25 42.1563 139.55C40.8896 140.85 40.2563 142.583 40.2563 144.75V156.4C40.2563 158.533 40.8896 160.25 42.1563 161.55C43.4229 162.85 45.0896 163.5 47.1563 163.5ZM68.9609 168C68.7943 168 68.6443 167.95 68.5109 167.85C68.4109 167.717 68.3609 167.567 68.3609 167.4V133.6C68.3609 133.433 68.4109 133.3 68.5109 133.2C68.6443 133.067 68.7943 133 68.9609 133H73.5609C73.7276 133 73.8609 133.067 73.9609 133.2C74.0943 133.3 74.1609 133.433 74.1609 133.6V162.75C74.1609 162.917 74.2443 163 74.4109 163H91.1609C91.3276 163 91.4609 163.067 91.5609 163.2C91.6943 163.3 91.7609 163.433 91.7609 163.6V167.4C91.7609 167.567 91.6943 167.717 91.5609 167.85C91.4609 167.95 91.3276 168 91.1609 168H68.9609ZM121.944 168C121.61 168 121.394 167.833 121.294 167.5L119.644 162.15C119.577 162.017 119.494 161.95 119.394 161.95H106.194C106.094 161.95 106.01 162.017 105.944 162.15L104.294 167.5C104.194 167.833 103.977 168 103.644 168H98.6438C98.4438 168 98.2938 167.95 98.1938 167.85C98.0938 167.717 98.0771 167.533 98.1438 167.3L108.994 133.5C109.094 133.167 109.31 133 109.644 133H115.894C116.227 133 116.444 133.167 116.544 133.5L127.444 167.3C127.477 167.367 127.494 167.45 127.494 167.55C127.494 167.85 127.31 168 126.944 168H121.944ZM107.494 157.1C107.46 157.3 107.527 157.4 107.694 157.4H117.844C118.044 157.4 118.11 157.3 118.044 157.1L112.894 140.35C112.86 140.217 112.81 140.15 112.744 140.15C112.677 140.15 112.627 140.217 112.594 140.35L107.494 157.1ZM155.016 133.6C155.016 133.433 155.066 133.3 155.166 133.2C155.299 133.067 155.449 133 155.616 133H160.216C160.382 133 160.516 133.067 160.616 133.2C160.749 133.3 160.816 133.433 160.816 133.6V167.4C160.816 167.567 160.749 167.717 160.616 167.85C160.516 167.95 160.382 168 160.216 168H155.766C155.432 168 155.199 167.867 155.066 167.6L140.666 144C140.599 143.9 140.532 143.867 140.466 143.9C140.399 143.9 140.366 143.967 140.366 144.1L140.466 167.4C140.466 167.567 140.399 167.717 140.266 167.85C140.166 167.95 140.032 168 139.866 168H135.266C135.099 168 134.949 167.95 134.816 167.85C134.716 167.717 134.666 167.567 134.666 167.4V133.6C134.666 133.433 134.716 133.3 134.816 133.2C134.949 133.067 135.099 133 135.266 133H139.716C140.049 133 140.282 133.133 140.416 133.4L154.766 157C154.832 157.1 154.899 157.15 154.966 157.15C155.032 157.117 155.066 157.033 155.066 156.9L155.016 133.6ZM191.813 168C191.48 168 191.263 167.833 191.163 167.5L189.513 162.15C189.446 162.017 189.363 161.95 189.263 161.95H176.063C175.963 161.95 175.88 162.017 175.813 162.15L174.163 167.5C174.063 167.833 173.846 168 173.513 168H168.513C168.313 168 168.163 167.95 168.063 167.85C167.963 167.717 167.946 167.533 168.013 167.3L178.863 133.5C178.963 133.167 179.18 133 179.513 133H185.763C186.096 133 186.313 133.167 186.413 133.5L197.313 167.3C197.346 167.367 197.363 167.45 197.363 167.55C197.363 167.85 197.18 168 196.813 168H191.813ZM177.363 157.1C177.33 157.3 177.396 157.4 177.563 157.4H187.713C187.913 157.4 187.98 157.3 187.913 157.1L182.763 140.35C182.73 140.217 182.68 140.15 182.613 140.15C182.546 140.15 182.496 140.217 182.463 140.35L177.363 157.1Z" fill="#70EDEF"/>
<defs>
<clipPath id="clip0_237_463">
<rect x="59.5" width="80" height="96" rx="6" fill="white"/>
</clipPath>
</defs>
</svg>
