<svg width="81" height="80" viewBox="0 0 81 80" fill="none" xmlns="http://www.w3.org/2000/svg">
<path d="M40.5007 75.8666C36.8673 75.8666 33.2673 74.7999 30.434 72.6999L16.1006 61.9999C12.3007 59.1666 9.33398 53.2333 9.33398 48.5333V23.7333C9.33398 18.5999 13.1007 13.1333 17.934 11.3333L34.5673 5.09993C37.8673 3.86659 43.0673 3.86659 46.3673 5.09993L63.0007 11.3333C67.834 13.1333 71.6007 18.5999 71.6007 23.7333V48.4999C71.6007 53.2333 68.634 59.1333 64.834 61.9666L50.5007 72.6666C47.734 74.7999 44.134 75.8666 40.5007 75.8666ZM36.334 9.79993L19.7007 16.0333C16.8673 17.0999 14.3673 20.6999 14.3673 23.7666V48.5333C14.3673 51.6999 16.6007 56.1333 19.1006 57.9999L33.434 68.6999C37.2673 71.5666 43.734 71.5666 47.6006 68.6999L61.934 57.9999C64.4673 56.0999 66.6673 51.6999 66.6673 48.5333V23.7333C66.6673 20.6999 64.1673 17.0999 61.334 15.9999L44.7007 9.76659C42.434 8.96659 38.5673 8.96659 36.334 9.79993Z" fill="#03F982"/>
<path d="M36.0322 47.4334C35.3988 47.4334 34.7655 47.2001 34.2655 46.7001L28.8988 41.3334C27.9322 40.3667 27.9322 38.7667 28.8988 37.8001C29.8655 36.8334 31.4655 36.8334 32.4322 37.8001L36.0322 41.4001L48.5988 28.8334C49.5655 27.8667 51.1655 27.8667 52.1322 28.8334C53.0988 29.8001 53.0988 31.4001 52.1322 32.3667L37.7988 46.7001C37.2988 47.2001 36.6655 47.4334 36.0322 47.4334Z" fill="#03F982"/>
</svg>
