<svg width="16" height="16" viewBox="0 0 16 16" fill="none" xmlns="http://www.w3.org/2000/svg">
<path d="M13.867 11.3333V10.3333C13.867 9.4 12.9337 8.66667 12.0003 8.66667C11.067 8.66667 10.1337 9.4 10.1337 10.3333V11.3333C9.73366 11.3333 9.33366 11.7333 9.33366 12.1333V14.4667C9.33366 14.9333 9.73366 15.3333 10.1337 15.3333H13.8003C14.267 15.3333 14.667 14.9333 14.667 14.5333V12.2C14.667 11.7333 14.267 11.3333 13.867 11.3333ZM13.0003 11.3333H11.0003V10.3333C11.0003 9.8 11.467 9.46667 12.0003 9.46667C12.5337 9.46667 13.0003 9.8 13.0003 10.3333V11.3333ZM10.0003 8C9.40033 8.46667 9.00033 9.06667 8.86699 9.8C8.60033 9.93333 8.33366 10 8.00033 10C6.86699 10 6.00033 9.13333 6.00033 8C6.00033 6.86667 6.86699 6 8.00033 6C9.13366 6 10.0003 6.86667 10.0003 8ZM8.00033 13C4.66699 13 1.80033 10.9333 0.666992 8C1.80033 5.06667 4.66699 3 8.00033 3C11.3337 3 14.2003 5.06667 15.3337 8C15.2003 8.33333 15.0003 8.66667 14.867 9C14.3337 8 13.2003 7.33333 12.0003 7.33333C11.7337 7.33333 11.5337 7.4 11.267 7.4C11.0003 5.86667 9.66699 4.66667 8.00033 4.66667C6.13366 4.66667 4.66699 6.13333 4.66699 8C4.66699 9.86667 6.13366 11.3333 8.00033 11.3333H8.20033C8.06699 11.6 8.00033 11.8667 8.00033 12.1333V13Z" fill="#FF5C5C"/>
</svg>
